<?xml version="1.0" encoding="utf-8"?>
<!-- Generator: Adobe Illustrator 25.1.0, SVG Export Plug-In . SVG Version: 6.00 Build 0)  -->
<svg version="1.1" xmlns="http://www.w3.org/2000/svg" xmlns:xlink="http://www.w3.org/1999/xlink" x="0px" y="0px" width="80px"
	 height="93px" viewBox="0 0 80 93" style="enable-background:new 0 0 80 93;" xml:space="preserve">
<style type="text/css">
	.st0{display:none;}
	.st1{display:inline;}
	.st2{fill:#FFFFFF;}
	.st3{fill:#6A91C3;}
	.st4{fill:#4575B4;stroke:#4575B4;stroke-miterlimit:10;}
	.st5{clip-path:url(#SVGID_2_);}
	.st6{clip-path:url(#SVGID_4_);}
	.st7{clip-path:url(#SVGID_6_);}
	.st8{fill:#74ADD1;stroke:#74ADD1;stroke-miterlimit:10;}
	.st9{clip-path:url(#SVGID_8_);}
	.st10{clip-path:url(#SVGID_10_);}
	.st11{clip-path:url(#SVGID_12_);fill:#74ADD1;stroke:#74ADD1;stroke-miterlimit:10;}
	.st12{clip-path:url(#SVGID_14_);}
	.st13{clip-path:url(#SVGID_16_);}
	.st14{clip-path:url(#SVGID_18_);}
	.st15{clip-path:url(#SVGID_20_);}
</style>
<g id="Layer_4" class="st0">
	<g class="st1">
		<polygon class="st2" points="1,69.02 1,23.98 40,1.46 79,23.98 79,69.02 40,91.54 		"/>
		<path class="st3" d="M40,2.62l38,21.94v43.88L40,90.38L2,68.44V24.56L40,2.62 M40,0.31L0,23.41v46.19l40,23.1l40-23.1V23.41
			L40,0.31L40,0.31z"/>
	</g>
</g>
<g id="Layer_9" class="st0">
	<g class="st1">
		<path class="st4" d="M42.22,77.77c0,3.31,2.71,6.02,6.02,6.02c3.31,0,6.02-2.71,6.02-6.02s-2.71-6.02-6.02-6.02
			C44.93,71.75,42.22,74.46,42.22,77.77"/>
		<g>
			<defs>
				<path id="SVGID_1_" d="M42.22,77.77c0,3.31,2.71,6.02,6.02,6.02c3.31,0,6.02-2.71,6.02-6.02s-2.71-6.02-6.02-6.02
					C44.93,71.75,42.22,74.46,42.22,77.77"/>
			</defs>
			<clipPath id="SVGID_2_">
				<use xlink:href="#SVGID_1_"  style="overflow:visible;"/>
			</clipPath>
			<g class="st5">
				<g>
					<path class="st2" d="M45.1,73.46h2.27l1.42,3.78l0.69,1.9h0.05c-0.1-0.91-0.31-2.19-0.31-3.23v-2.45h2.14v8.47h-2.27
						l-1.42-3.79l-0.69-1.89h-0.05c0.1,0.96,0.31,2.19,0.31,3.23v2.45H45.1V73.46z"/>
				</g>
			</g>
		</g>
	</g>
	<g class="st1">
		<path class="st4" d="M53.77,71.08c0,3.31,2.71,6.02,6.02,6.02c3.31,0,6.02-2.71,6.02-6.02s-2.71-6.02-6.02-6.02
			C56.48,65.06,53.77,67.77,53.77,71.08"/>
		<g>
			<defs>
				<path id="SVGID_3_" d="M53.77,71.08c0,3.31,2.71,6.02,6.02,6.02c3.31,0,6.02-2.71,6.02-6.02s-2.71-6.02-6.02-6.02
					C56.48,65.06,53.77,67.77,53.77,71.08"/>
			</defs>
			<clipPath id="SVGID_4_">
				<use xlink:href="#SVGID_3_"  style="overflow:visible;"/>
			</clipPath>
			<g class="st6">
				<g>
					<path class="st2" d="M56.38,66.83h2.27v3.15h0.05l2.08-3.15h2.48l-4.61,6.31v2.16h-2.27V66.83z M59.27,71.68l1.3-1.75
						l2.89,5.37h-2.48L59.27,71.68z"/>
				</g>
			</g>
		</g>
	</g>
	<g class="st1">
		<path class="st4" d="M65.32,64.12c0,3.31,2.71,6.02,6.02,6.02c3.31,0,6.02-2.71,6.02-6.02c0-3.31-2.71-6.02-6.02-6.02
			C68.03,58.11,65.32,60.81,65.32,64.12"/>
		<g>
			<defs>
				<path id="SVGID_5_" d="M65.32,64.12c0,3.31,2.71,6.02,6.02,6.02c3.31,0,6.02-2.71,6.02-6.02c0-3.31-2.71-6.02-6.02-6.02
					C68.03,58.11,65.32,60.81,65.32,64.12"/>
			</defs>
			<clipPath id="SVGID_6_">
				<use xlink:href="#SVGID_5_"  style="overflow:visible;"/>
			</clipPath>
			<g class="st7">
				<g>
					<path class="st2" d="M67.87,64.09c0-2.87,1.41-4.35,3.47-4.35s3.47,1.49,3.47,4.35c0,2.95-1.41,4.43-3.47,4.43
						S67.87,67.03,67.87,64.09z M72.51,64.09c0-1.62-0.44-2.42-1.17-2.42s-1.17,0.81-1.17,2.42c0,1.69,0.44,2.5,1.17,2.5
						S72.51,65.78,72.51,64.09z"/>
				</g>
			</g>
		</g>
	</g>
</g>
<g id="Layer_9_copy">
	<path class="st8" d="M1.8,43.54c0,4.31,3.52,7.83,7.83,7.83c4.31,0,7.83-3.52,7.83-7.83c0-4.31-3.52-7.83-7.83-7.83
		C5.32,35.71,1.8,39.24,1.8,43.54"/>
	<path class="st8" d="M26.13,59.43c0,4.31,3.52,7.83,7.83,7.83c4.31,0,7.83-3.52,7.83-7.83s-3.52-7.83-7.83-7.83
		C29.65,51.6,26.13,55.12,26.13,59.43"/>
	<path class="st8" d="M13.98,51.48c0,4.31,3.52,7.83,7.83,7.83c4.31,0,7.83-3.52,7.83-7.83s-3.52-7.83-7.83-7.83
		C17.5,43.65,13.98,47.18,13.98,51.48"/>
	<path class="st8" d="M38.29,51.48c0,4.31,3.52,7.83,7.83,7.83c4.31,0,7.83-3.52,7.83-7.83s-3.52-7.83-7.83-7.83
		C41.81,43.65,38.29,47.18,38.29,51.48"/>
	<path class="st8" d="M50.46,59.43c0,4.31,3.52,7.83,7.83,7.83c4.31,0,7.83-3.52,7.83-7.83s-3.52-7.83-7.83-7.83
		C53.98,51.6,50.46,55.12,50.46,59.43"/>
	<g>
		<path class="st4" d="M2.37,38.54c0,3.99,3.26,7.25,7.25,7.25c3.99,0,7.25-3.26,7.25-7.25s-3.26-7.25-7.25-7.25
			C5.63,31.29,2.37,34.55,2.37,38.54"/>
		<g>
			<defs>
				<path id="SVGID_7_" d="M2.37,38.54c0,3.99,3.26,7.25,7.25,7.25c3.99,0,7.25-3.26,7.25-7.25s-3.26-7.25-7.25-7.25
					C5.63,31.29,2.37,34.55,2.37,38.54"/>
			</defs>
			<clipPath id="SVGID_8_">
				<use xlink:href="#SVGID_7_"  style="overflow:visible;"/>
			</clipPath>
			<g class="st9">
				<g>
					<path class="st2" d="M6.47,33.46h3.63c2.22,0,4.01,0.8,4.01,3.29c0,2.41-1.84,3.47-4.01,3.47H8.78v3.47H6.47V33.46z
						 M9.96,38.38c1.27,0,1.87-0.57,1.87-1.63c0-1.07-0.65-1.45-1.87-1.45H8.78v3.09H9.96z"/>
				</g>
			</g>
		</g>
	</g>
	<g>
		<path class="st4" d="M14.55,46.48c0,3.99,3.26,7.25,7.25,7.25c3.99,0,7.25-3.26,7.25-7.25s-3.26-7.25-7.25-7.25
			C17.82,39.23,14.55,42.49,14.55,46.48"/>
		<g>
			<defs>
				<path id="SVGID_9_" d="M14.52,46.48c0,3.99,3.26,7.25,7.25,7.25c3.99,0,7.25-3.26,7.25-7.25s-3.26-7.25-7.25-7.25
					C17.78,39.23,14.52,42.49,14.52,46.48"/>
			</defs>
			<clipPath id="SVGID_10_">
				<use xlink:href="#SVGID_9_"  style="overflow:visible;"/>
			</clipPath>
			<g class="st10">
				<g>
					<path class="st2" d="M18.73,41.36h2.31v8.29h4.55v1.94h-6.87V41.36z"/>
				</g>
			</g>
		</g>
	</g>
	<g>
		<defs>
			<polygon id="SVGID_11_" points="78.38,69.66 78.38,25.34 40,3.17 1.62,25.34 1.62,69.66 40,91.83 			"/>
		</defs>
		<clipPath id="SVGID_12_">
			<use xlink:href="#SVGID_11_"  style="overflow:visible;"/>
		</clipPath>
		<path class="st11" d="M62.62,67.37c0,4.31,3.52,7.83,7.83,7.83c4.31,0,7.83-3.52,7.83-7.83s-3.52-7.83-7.83-7.83
			C66.14,59.54,62.62,63.06,62.62,67.37"/>
	</g>
</g>
<g id="Layer_4_copy">
</g>
<g id="Layer_8">
</g>
<g id="Layer_2">
</g>
<g id="Layer_10">
	<g>
		<path class="st4" d="M26.7,54.43c0,3.99,3.26,7.25,7.25,7.25c3.99,0,7.25-3.26,7.25-7.25s-3.26-7.25-7.25-7.25
			C29.97,47.17,26.7,50.44,26.7,54.43"/>
		<g>
			<defs>
				<path id="SVGID_13_" d="M26.7,54.43c0,3.99,3.26,7.25,7.25,7.25c3.99,0,7.25-3.26,7.25-7.25s-3.26-7.25-7.25-7.25
					C29.97,47.17,26.7,50.44,26.7,54.43"/>
			</defs>
			<clipPath id="SVGID_14_">
				<use xlink:href="#SVGID_13_"  style="overflow:visible;"/>
			</clipPath>
			<g class="st12">
				<g>
					<path class="st2" d="M30.41,57.59h2.39v-6.35h-2.39V49.3h7.09v1.94h-2.39v6.35h2.39v1.94h-7.09V57.59z"/>
				</g>
			</g>
		</g>
	</g>
	<g>
		<path class="st4" d="M38.87,46.48c0,3.99,3.26,7.25,7.25,7.25c3.99,0,7.25-3.26,7.25-7.25s-3.26-7.25-7.25-7.25
			C42.13,39.23,38.87,42.49,38.87,46.48"/>
		<g>
			<defs>
				<path id="SVGID_15_" d="M38.87,46.48c0,3.99,3.26,7.25,7.25,7.25c3.99,0,7.25-3.26,7.25-7.25s-3.26-7.25-7.25-7.25
					C42.13,39.23,38.87,42.49,38.87,46.48"/>
			</defs>
			<clipPath id="SVGID_16_">
				<use xlink:href="#SVGID_15_"  style="overflow:visible;"/>
			</clipPath>
			<g class="st13">
				<g>
					<path class="st2" d="M42.45,41.36h2.37l2.15,5.09l0.88,2.25h0.05c-0.1-1.08-0.32-2.51-0.32-3.72v-3.62h2.21v10.23h-2.37
						l-2.15-5.1l-0.88-2.24h-0.05c0.1,1.13,0.32,2.5,0.32,3.71v3.63h-2.21V41.36z"/>
				</g>
			</g>
		</g>
	</g>
	<g>
		<path class="st4" d="M51.03,54.43c0,3.99,3.26,7.25,7.25,7.25c3.99,0,7.25-3.26,7.25-7.25s-3.26-7.25-7.25-7.25
			C54.3,47.17,51.03,50.44,51.03,54.43"/>
		<g>
			<defs>
				<path id="SVGID_17_" d="M51.03,54.43c0,3.99,3.26,7.25,7.25,7.25c3.99,0,7.25-3.26,7.25-7.25s-3.26-7.25-7.25-7.25
					C54.3,47.17,51.03,50.44,51.03,54.43"/>
			</defs>
			<clipPath id="SVGID_18_">
				<use xlink:href="#SVGID_17_"  style="overflow:visible;"/>
			</clipPath>
			<g class="st14">
				<g>
					<path class="st2" d="M54.37,49.37h2.34v4.18h0.06l3.01-4.18h2.57l-5.65,7.44v2.79h-2.34V49.37z M57.7,54.85l1.36-1.81
						l3.59,6.56h-2.57L57.7,54.85z"/>
				</g>
			</g>
		</g>
	</g>
	<g>
		<path class="st4" d="M63.2,62.37c0,3.99,3.26,7.25,7.25,7.25c3.99,0,7.25-3.26,7.25-7.25s-3.26-7.25-7.25-7.25
			C66.46,55.12,63.2,58.38,63.2,62.37"/>
		<g>
			<defs>
				<path id="SVGID_19_" d="M63.2,62.37c0,3.99,3.26,7.25,7.25,7.25c3.99,0,7.25-3.26,7.25-7.25s-3.26-7.25-7.25-7.25
					C66.46,55.12,63.2,58.38,63.2,62.37"/>
			</defs>
			<clipPath id="SVGID_20_">
				<use xlink:href="#SVGID_19_"  style="overflow:visible;"/>
			</clipPath>
			<g class="st15">
				<g>
					<path class="st2" d="M66.33,62.31c0-3.42,1.68-5.26,4.12-5.26c2.44,0,4.12,1.84,4.12,5.26c0,3.5-1.68,5.35-4.12,5.35
						C68.01,67.66,66.33,65.81,66.33,62.31z M72.19,62.31c0-2.13-0.67-3.26-1.74-3.26c-1.07,0-1.74,1.13-1.74,3.26
						c0,2.21,0.67,3.35,1.74,3.35C71.52,65.66,72.19,64.52,72.19,62.31z"/>
				</g>
			</g>
		</g>
	</g>
</g>
<g id="Layer_1">
</g>
<g id="Layer_3">
</g>
<g id="Layer_5">
</g>
<g id="Layer_6">
	<g>
		<path class="st3" d="M40,2.62l38,21.94v43.88L40,90.38L2,68.44V24.56L40,2.62 M40,0.31L0,23.41v46.19l40,23.1l40-23.1V23.41
			L40,0.31L40,0.31z"/>
	</g>
</g>
</svg>
