<svg xmlns="http://www.w3.org/2000/svg" xmlns:xlink="http://www.w3.org/1999/xlink" width="80" height="92.38464" viewBox="0 0 80 92.38464"><defs><style>.cls-1{fill:none;}.cls-2{fill:#fff;}.cls-3{fill:#6a91c3;}.cls-4{fill:#74add1;stroke:#74add1;}.cls-4,.cls-5,.cls-6,.cls-7{stroke-miterlimit:10;}.cls-5{fill:#abd9e9;stroke:#abd9e9;}.cls-6,.cls-9{fill:#cde8f2;}.cls-6{stroke:#cde8f2;}.cls-7{fill:#4575b4;stroke:#4575b4;}.cls-8{clip-path:url(#clip-path);}.cls-10{clip-path:url(#clip-path-2);}.cls-11{clip-path:url(#clip-path-3);}.cls-12{clip-path:url(#clip-path-4);}.cls-13{clip-path:url(#clip-path-5);}.cls-14{clip-path:url(#clip-path-6);}</style><clipPath id="clip-path" transform="translate(0 -0.30768)"><path class="cls-1" d="M2.76678,64.30906a5.40384,5.40384,0,1,0,5.40377-5.40383,5.41966,5.41966,0,0,0-5.40377,5.40383"/></clipPath><clipPath id="clip-path-2" transform="translate(0 -0.30768)"><path class="cls-1" d="M13.37657,70.43894a5.40384,5.40384,0,1,0,5.40378-5.40382,5.41966,5.41966,0,0,0-5.40378,5.40382"/></clipPath><clipPath id="clip-path-3" transform="translate(0 -0.30768)"><path class="cls-1" d="M23.98637,76.61186A5.40384,5.40384,0,1,0,29.39015,71.208a5.41966,5.41966,0,0,0-5.40378,5.40383"/></clipPath><clipPath id="clip-path-4" transform="translate(0 -0.30768)"><path class="cls-1" d="M34.59616,70.43894a5.40384,5.40384,0,1,0,5.40378-5.40382,5.41966,5.41966,0,0,0-5.40378,5.40382"/></clipPath><clipPath id="clip-path-5" transform="translate(0 -0.30768)"><path class="cls-1" d="M45.19205,64.30906a5.40384,5.40384,0,1,0,5.40378-5.40382,5.41966,5.41966,0,0,0-5.40378,5.40382"/></clipPath><clipPath id="clip-path-6" transform="translate(0 -0.30768)"><path class="cls-1" d="M55.78794,70.46172a5.40383,5.40383,0,1,0,5.40377-5.40383,5.41966,5.41966,0,0,0-5.40377,5.40383"/></clipPath></defs><g id="Layer_4" data-name="Layer 4"><polygon class="cls-2" points="1 68.708 1 23.677 40 1.155 79 23.677 79 68.708 40 91.23 1 68.708"/><path class="cls-3" d="M40,2.6172,78,24.56133v43.8773L40,90.38279,2,68.43863V24.56133L40,2.6172M40,.30768,0,23.40675V69.5932L40,92.69231,80,69.5932V23.40675L40,.30768Z" transform="translate(0 -0.30768)"/></g><g id="Layer_9_copy" data-name="Layer 9 copy"><path class="cls-4" d="M34.59616,82.79773a5.40384,5.40384,0,1,0,5.40378-5.40383,5.41966,5.41966,0,0,0-5.40378,5.40383" transform="translate(0 -0.30768)"/><path class="cls-4" d="M45.19205,76.64925a5.40384,5.40384,0,1,0,5.40378-5.40383,5.41966,5.41966,0,0,0-5.40378,5.40383" transform="translate(0 -0.30768)"/><path class="cls-5" d="M55.78794,58.14412a5.40383,5.40383,0,1,0,5.40377-5.40383,5.41966,5.41966,0,0,0-5.40377,5.40383" transform="translate(0 -0.30768)"/><path class="cls-5" d="M66.38382,52.00627a5.40384,5.40384,0,1,0,5.40378-5.40383,5.41966,5.41966,0,0,0-5.40378,5.40383" transform="translate(0 -0.30768)"/></g><g id="Layer_8" data-name="Layer 8"><path class="cls-4" d="M23.97941,64.30906a5.40384,5.40384,0,1,0,5.40378-5.40383,5.4197,5.4197,0,0,0-5.40378,5.40383" transform="translate(0 -0.30768)"/><path class="cls-6" d="M34.59462,45.88422A5.40384,5.40384,0,1,0,39.9984,40.4804a5.4197,5.4197,0,0,0-5.40378,5.40382" transform="translate(0 -0.30768)"/><path class="cls-4" d="M13.37658,58.14412a5.40383,5.40383,0,1,0,5.40377-5.40383,5.4197,5.4197,0,0,0-5.40377,5.40383" transform="translate(0 -0.30768)"/><path class="cls-5" d="M23.97941,52.00627a5.40384,5.40384,0,1,0,5.40378-5.40383,5.4197,5.4197,0,0,0-5.40378,5.40383" transform="translate(0 -0.30768)"/><path class="cls-5" d="M34.59617,58.14412a5.40383,5.40383,0,1,0,5.40377-5.40383,5.4197,5.4197,0,0,0-5.40377,5.40383" transform="translate(0 -0.30768)"/><path class="cls-5" d="M2.76678,52.00627a5.40384,5.40384,0,1,0,5.40377-5.40383,5.41969,5.41969,0,0,0-5.40377,5.40383" transform="translate(0 -0.30768)"/><path class="cls-6" d="M45.19205,39.56989a5.40384,5.40384,0,1,0,5.40378-5.40383,5.4197,5.4197,0,0,0-5.40378,5.40383" transform="translate(0 -0.30768)"/><path class="cls-6" d="M55.69935,45.88422a5.40383,5.40383,0,1,0,5.40377-5.40383,5.4197,5.4197,0,0,0-5.40377,5.40383" transform="translate(0 -0.30768)"/><path class="cls-6" d="M66.38382,39.70347a5.40384,5.40384,0,1,0,5.40378-5.40383,5.4197,5.4197,0,0,0-5.40378,5.40383" transform="translate(0 -0.30768)"/><path class="cls-5" d="M45.19205,52.00627a5.40384,5.40384,0,1,0,5.40378-5.40383,5.4197,5.4197,0,0,0-5.40378,5.40383" transform="translate(0 -0.30768)"/><path class="cls-4" d="M66.38382,64.30906a5.40384,5.40384,0,1,0,5.40378-5.40383,5.4197,5.4197,0,0,0-5.40378,5.40383" transform="translate(0 -0.30768)"/></g><g id="Layer_2" data-name="Layer 2"><path class="cls-7" d="M2.76678,64.30906a5.40384,5.40384,0,1,0,5.40377-5.40383,5.41966,5.41966,0,0,0-5.40377,5.40383" transform="translate(0 -0.30768)"/><g class="cls-8"><path class="cls-9" d="M5.81836,60.52148H8.52344c1.65527,0,2.98828.59864,2.98828,2.45313,0,1.7959-1.37012,2.58691-2.98828,2.58691H7.544v2.58692H5.81836Zm2.60547,3.66993c.94531,0,1.39551-.42383,1.39551-1.2168,0-.7959-.48731-1.083-1.39551-1.083H7.544v2.29981Z" transform="translate(0 -0.30768)"/></g><path class="cls-7" d="M13.37657,70.43894a5.40384,5.40384,0,1,0,5.40378-5.40382,5.41966,5.41966,0,0,0-5.40378,5.40382" transform="translate(0 -0.30768)"/><g class="cls-10"><path class="cls-9" d="M16.5166,66.61719h1.72363v6.17969h3.39454v1.44726H16.5166Z" transform="translate(0 -0.30768)"/></g><path class="cls-7" d="M23.98637,76.61186A5.40384,5.40384,0,1,0,29.39015,71.208a5.41966,5.41966,0,0,0-5.40378,5.40383" transform="translate(0 -0.30768)"/><g class="cls-11"><path class="cls-9" d="M26.74707,78.96973h1.78125V74.2373H26.74707V72.79h5.28809V74.2373H30.25391v4.73243h1.78125V80.417H26.74707Z" transform="translate(0 -0.30768)"/></g></g><g id="Layer_10" data-name="Layer 10"><path class="cls-7" d="M34.59616,70.43894a5.40384,5.40384,0,1,0,5.40378-5.40382,5.41966,5.41966,0,0,0-5.40378,5.40382" transform="translate(0 -0.30768)"/><g class="cls-12"><path class="cls-9" d="M37.2627,66.61719h1.76953l1.60449,3.792L41.29,72.085h.04c-.07715-.80273-.23828-1.87109-.23828-2.77148V66.61719h1.6455v7.627H40.96875l-1.60547-3.7998-.65234-1.668h-.041c.07813.84375.23926,1.86523.23926,2.76269v2.70508H37.2627Z" transform="translate(0 -0.30768)"/></g><path class="cls-7" d="M45.19205,64.30906a5.40384,5.40384,0,1,0,5.40378-5.40382,5.41966,5.41966,0,0,0-5.40378,5.40382" transform="translate(0 -0.30768)"/><g class="cls-13"><path class="cls-9" d="M47.67773,60.53906h1.7461v3.11231h.04394l2.24707-3.11231h1.917l-4.208,5.544v2.083h-1.7461ZM50.1582,64.626,51.169,63.2793,53.8457,68.166H51.93164Z" transform="translate(0 -0.30768)"/></g><path class="cls-7" d="M55.78794,70.46172a5.40383,5.40383,0,1,0,5.40377-5.40383,5.41966,5.41966,0,0,0-5.40377,5.40383" transform="translate(0 -0.30768)"/><g class="cls-14"><path class="cls-9" d="M58.125,70.418c0-2.54883,1.251-3.91895,3.06738-3.91895s3.06739,1.37012,3.06739,3.91895c0,2.60937-1.251,3.98926-3.06739,3.98926S58.125,73.02734,58.125,70.418Zm4.36523,0c0-1.585-.50195-2.42774-1.29785-2.42774-.79492,0-1.29785.84278-1.29785,2.42774,0,1.64551.50293,2.49805,1.29785,2.49805C61.98828,72.916,62.49023,72.06348,62.49023,70.418Z" transform="translate(0 -0.30768)"/></g></g></svg>